# xmcd
#
# Track frame offsets: 
#        150
#        24656
#        50704
#        80380
#        118979
#        143619
#        171947
#        205987
#        221952
#
# Disc length: 3342 seconds
#
# Revision: 0
# Processed by: cddbd v1.4PL0 Copyright (c) Steve Scherf et al.
# Submitted via: ExactAudioCopy v0.90b4
#
DISCID=890d0c09
DTITLE=Nick Gravenites and Blue Gravy - Record Plant  04-22-73
DYEAR=1900
DGENRE=
TTITLE0=Donahue intro > Dekalb Blues
TTITLE1=? (Rock Me Baby)?
TTITLE2=?
TTITLE3=? (Left Hand Soul)?
TTITLE4=Born In Chicago
TTITLE5=Country Mechanic
TTITLE6=Going Banck To Ana.....(fade out)
TTITLE7=They Let Me Drive Again
TTITLE8=Buried Alive In The Blues
EXTD=
EXTT0=
EXTT1=
EXTT2=
EXTT3=
EXTT4=
EXTT5=
EXTT6=
EXTT7=
EXTT8=
PLAYORDER=
